<?xml version="1.0" encoding="UTF-8" standalone="no"?>
<!-- Created with Inkscape (http://www.inkscape.org/) -->

<svg
   xmlns:dc="http://purl.org/dc/elements/1.1/"
   xmlns:cc="http://creativecommons.org/ns#"
   xmlns:rdf="http://www.w3.org/1999/02/22-rdf-syntax-ns#"
   xmlns:svg="http://www.w3.org/2000/svg"
   xmlns="http://www.w3.org/2000/svg"
   xmlns:sodipodi="http://sodipodi.sourceforge.net/DTD/sodipodi-0.dtd"
   xmlns:inkscape="http://www.inkscape.org/namespaces/inkscape"
   width="210mm"
   height="297mm"
   viewBox="0 0 210 297"
   version="1.1"
   id="svg8"
   inkscape:version="0.92.4 (5da689c313, 2019-01-14)"
   sodipodi:docname="Drako.svg">
  <defs
     id="defs2" />
  <sodipodi:namedview
     id="base"
     pagecolor="#ffffff"
     bordercolor="#666666"
     borderopacity="1.0"
     inkscape:pageopacity="0.0"
     inkscape:pageshadow="2"
     inkscape:zoom="2.1658036"
     inkscape:cx="299.65565"
     inkscape:cy="632.99824"
     inkscape:document-units="mm"
     inkscape:current-layer="layer1"
     showgrid="false"
     inkscape:snap-global="false"
     inkscape:window-width="1879"
     inkscape:window-height="1052"
     inkscape:window-x="41"
     inkscape:window-y="0"
     inkscape:window-maximized="1" />
  <metadata
     id="metadata5">
    <rdf:RDF>
      <cc:Work
         rdf:about="">
        <dc:format>image/svg+xml</dc:format>
        <dc:type
           rdf:resource="http://purl.org/dc/dcmitype/StillImage" />
        <dc:title></dc:title>
      </cc:Work>
    </rdf:RDF>
  </metadata>
  <g
     inkscape:label="Layer 1"
     inkscape:groupmode="layer"
     id="layer1">
    <path
       style="fill:none;stroke:#000000;stroke-width:0.26458332px;stroke-linecap:butt;stroke-linejoin:miter;stroke-opacity:1"
       d="m 42.333333,205.52976 c 6.803572,-68.79167 6.803572,-68.79167 6.803572,-68.79167 z"
       id="path3715"
       inkscape:connector-curvature="0" />
    <path
       style="fill:none;stroke:#000000;stroke-width:0.26458332px;stroke-linecap:butt;stroke-linejoin:miter;stroke-opacity:1"
       d="m 42.333333,205.52976 c 0.368357,3.35244 11.815516,0.44295 18.898809,0 -1.880821,-20.99028 7.016659,-29.75057 5.314634,-71.34979 -5.101524,0.15094 -10.384527,0.48336 -17.409871,2.55812 -1.594494,15.04271 -3.054101,19.66841 -3.054101,19.66841 1.543671,23.0788 -2.389289,33.0137 -3.749471,49.12326 z"
       id="path3717"
       inkscape:connector-curvature="0"
       sodipodi:nodetypes="cccccc" />
    <path
       style="fill:none;stroke:#000000;stroke-width:0.26458332px;stroke-linecap:butt;stroke-linejoin:miter;stroke-opacity:1"
       d="m 49.136905,136.73809 c -19.331229,14.7136 -19.485069,21.87626 -19.206713,24.65982 0.130921,1.30921 17.713786,30.41884 17.713786,30.41884 l 12.827225,0.97731 c 0.211741,-3.61291 1.945779,-5.11298 0.610819,-10.8726 -2.529339,-0.56433 -4.357931,-2.00459 -8.062825,-1.09947 l -10.750436,-21.13438 5.49738,-9.40663 z"
       id="path3733"
       inkscape:connector-curvature="0"
       sodipodi:nodetypes="csccccccc" />
    <path
       style="fill:none;stroke:#000000;stroke-width:0.26458332px;stroke-linecap:butt;stroke-linejoin:miter;stroke-opacity:1"
       d="m 47.643978,191.81675 c 2.698551,-3.03015 5.810852,-5.77068 5.375219,-10.99476 0.764806,3.66492 -1.948996,7.32984 -5.375219,10.99476 z"
       id="path3735"
       inkscape:connector-curvature="0"
       sodipodi:nodetypes="ccc" />
    <path
       style="fill:none;stroke:#000000;stroke-width:0.26458332px;stroke-linecap:butt;stroke-linejoin:miter;stroke-opacity:1"
       d="m 77.696334,133.91099 c -0.08436,3.23402 -1.114514,5.1061 -1.210934,9.28473 -0.598057,25.91833 3.156005,41.54691 3.349983,50.33804 0.3499,15.85758 -1.37137,10.56917 -1.528228,11.11022 4.888013,2.28838 9.19093,1.35873 13.438043,0.12216 l -1.343802,-69.14485 c -2.562211,-1.21679 -5.523967,-1.44476 -8.917976,-1.46597 0.199631,-0.0814 -1.753347,-0.16289 -3.787086,-0.24433 z"
       id="path3739"
       inkscape:connector-curvature="0"
       sodipodi:nodetypes="cssccccc" />
    <path
       style="fill:none;stroke:#000000;stroke-width:0.26458332px;stroke-linecap:butt;stroke-linejoin:miter;stroke-opacity:1"
       d="m 90.401396,135.62129 c 11.225834,8.60516 9.572653,13.04231 9.528794,13.07155 4.13879,29.17137 2.76905,33.55439 4.15358,50.33159 -14.174688,0.32577 -6.246985,0.65154 -9.28447,0.97731 l -4.275741,-38.23734 0.366493,-0.97732 z"
       id="path3741"
       inkscape:connector-curvature="0"
       sodipodi:nodetypes="ccccccc" />
    <path
       style="fill:none;stroke:#000000;stroke-width:0.26458332px;stroke-linecap:butt;stroke-linejoin:miter;stroke-opacity:1"
       d="m 61.326352,201.95637 c 15.254168,-1.9248 18.202443,-0.48866 18.202443,-0.48866 -5.633342,-0.84083 -12.53632,0.0509 -18.202443,0.48866 z"
       id="path3745"
       inkscape:connector-curvature="0"
       sodipodi:nodetypes="ccc" />
    <path
       style="fill:none;stroke:#000000;stroke-width:0.26458332px;stroke-linecap:butt;stroke-linejoin:miter;stroke-opacity:1"
       d="m 66.546774,134.17997 c 3.71652,0.99384 7.43304,1.01643 11.14956,-0.26898 -3.71652,2.00017 -7.43304,1.50368 -11.14956,0.26898 z"
       id="path3747"
       inkscape:connector-curvature="0"
       sodipodi:nodetypes="ccc" />
    <path
       style="fill:none;stroke:#000000;stroke-width:0.26458332px;stroke-linecap:butt;stroke-linejoin:miter;stroke-opacity:1"
       d="m 69.511343,134.52181 c 0.732983,-2.44328 0.732983,-2.56544 0.732983,-2.56544 z"
       id="path3749"
       inkscape:connector-curvature="0" />
    <path
       style="fill:none;stroke:#000000;stroke-width:0.26458332px;stroke-linecap:butt;stroke-linejoin:miter;stroke-opacity:1"
       d="M 75.130889,134.39965 74.52007,131.58988 Z"
       id="path3753"
       inkscape:connector-curvature="0" />
    <path
       style="fill:none;stroke:#000000;stroke-width:0.26458332px;stroke-linecap:butt;stroke-linejoin:miter;stroke-opacity:1"
       d="M 107.13787,133.42234 Z"
       id="path3755"
       inkscape:connector-curvature="0" />
  </g>
</svg>
