<?xml version="1.0" encoding="UTF-8" standalone="no"?>
<!-- Created with Inkscape (http://www.inkscape.org/) -->

<svg
   xmlns:dc="http://purl.org/dc/elements/1.1/"
   xmlns:cc="http://creativecommons.org/ns#"
   xmlns:rdf="http://www.w3.org/1999/02/22-rdf-syntax-ns#"
   xmlns:svg="http://www.w3.org/2000/svg"
   xmlns="http://www.w3.org/2000/svg"
   xmlns:sodipodi="http://sodipodi.sourceforge.net/DTD/sodipodi-0.dtd"
   xmlns:inkscape="http://www.inkscape.org/namespaces/inkscape"
   width="210mm"
   height="297mm"
   viewBox="0 0 210 297"
   version="1.1"
   id="svg8"
   sodipodi:docname="hand.svg"
   inkscape:version="0.92.4 5da689c313, 2019-01-14">
  <defs
     id="defs2" />
  <sodipodi:namedview
     id="base"
     pagecolor="#ffffff"
     bordercolor="#666666"
     borderopacity="1.0"
     inkscape:pageopacity="0.0"
     inkscape:pageshadow="2"
     inkscape:zoom="0.24748737"
     inkscape:cx="2807.0924"
     inkscape:cy="551.16442"
     inkscape:document-units="mm"
     inkscape:current-layer="layer1"
     showgrid="false"
     inkscape:window-width="1920"
     inkscape:window-height="1028"
     inkscape:window-x="0"
     inkscape:window-y="0"
     inkscape:window-maximized="1" />
  <metadata
     id="metadata5">
    <rdf:RDF>
      <cc:Work
         rdf:about="">
        <dc:format>image/svg+xml</dc:format>
        <dc:type
           rdf:resource="http://purl.org/dc/dcmitype/StillImage" />
        <dc:title />
      </cc:Work>
    </rdf:RDF>
  </metadata>
  <g
     inkscape:label="Layer 1"
     inkscape:groupmode="layer"
     id="layer1">
    <path
       id="path4618"
       style="fill:none;stroke:#000000;stroke-width:0.53753698;stroke-linecap:butt;stroke-linejoin:miter;stroke-miterlimit:4;stroke-dasharray:none;stroke-opacity:1"
       d="m 76.830537,131.47478 c -6.47925,0.0578 -14.459599,6.11797 -18.121214,7.56179 -6.868012,2.70813 -21.485723,5.74257 -31.67644,11.89245 -2.22e-4,0.002 -0.226794,0.96602 -0.7323,2.44652 -0.609604,1.78538 -2.870443,4.22161 -2.11795,6.75747 4.267157,14.38003 0.552326,7.27313 0.477587,9.66858 -0.225409,7.22452 -0.568072,16.43191 -0.304205,22.6194 0.06943,1.62818 1.333812,3.16851 -0.683782,12.95029 -0.264267,1.28122 3.19658,3.04431 3.19658,3.04431 2.326047,2.46166 7.564999,-3.84635 7.066007,3.60865 -0.158778,2.37216 2.675951,2.73726 4.524293,2.98097 5.629912,0.74229 14.441332,-2.17787 22.498007,-5.36403 9.707893,-3.83915 18.319902,-8.06453 18.949787,-6.73429 2.966762,0.2154 5.499285,-0.7899 8.90033,2.82209 4.729016,5.02234 26.627303,8.83118 39.940963,9.72425 18.47462,-10.83909 40.53891,-5.69726 61.83575,-3.36065 l -1.79241,-49.06525 c -17.92339,1.41079 -35.84678,1.38921 -53.77018,-3.13658 -18.6702,-4.12993 -50.931906,-27.10245 -56.234668,-28.22937 -0.631699,-0.13425 -1.285887,-0.19257 -1.956155,-0.1866 z"
       inkscape:connector-curvature="0"
       sodipodi:nodetypes="sscssssscscscsccccss" />
    <path
       id="path4622"
       style="fill:none;stroke:#000000;stroke-width:0.60040671;stroke-linecap:butt;stroke-linejoin:miter;stroke-miterlimit:4;stroke-dasharray:none;stroke-opacity:1"
       d="m 60.63927,160.1147 -13.89062,8.51361 -1.344281,17.02731 v 1.5639 c 8.47565,-9.37948 14.809998,-8.07175 25.764871,-10.7497 l 16.131051,-9.85788 -5.152948,-6.49724 z m -15.234901,27.10482 -5.82504,6.05355 -6.721299,10.97799 v 4.25691 l 12.546339,-21.06005 z"
       inkscape:connector-curvature="0"
       sodipodi:nodetypes="cccccccccccccc" />
    <path
       style="fill:none;stroke:#000000;stroke-width:0.60040677;stroke-linecap:butt;stroke-linejoin:miter;stroke-miterlimit:4;stroke-dasharray:none;stroke-opacity:1"
       d="m 34.650347,216.12537 c 2.165744,1.74926 4.331489,5.58066 6.497233,10.30595 2.68851,1.74549 5.377019,1.22191 8.065529,0 1.283355,-4.04799 3.991035,-7.7399 3.136594,-12.32233 5.4517,2.04134 10.903401,4.78504 16.355101,7.39339 3.623896,-1.71765 3.925615,-3.43531 4.032766,-5.15297 0.528276,-1.90161 0.663381,-3.9998 0,-6.49723 0.746807,-1.11309 1.493617,-1.92909 2.240424,-3.58468 l -0.448085,-2.24043"
       id="path4624"
       inkscape:connector-curvature="0"
       sodipodi:nodetypes="ccccccccc" />
    <path
       style="fill:none;stroke:#000000;stroke-width:0.05544768px;stroke-linecap:butt;stroke-linejoin:miter;stroke-opacity:1"
       d="m 34.650347,216.12537 v 0 c 0,0 0,0 0,0 0,0 0,0 0,0 z"
       id="path4626"
       inkscape:connector-curvature="0" />
    <path
       id="path4628"
       style="fill:none;stroke:#000000;stroke-width:0.51658028;stroke-linecap:butt;stroke-linejoin:miter;stroke-miterlimit:4;stroke-dasharray:none;stroke-opacity:1"
       d="M 151.15242,61.536081 C 119.24844,100.6074 87.344449,139.67872 55.440467,178.75003 l 12.379572,-2.83927 C 97.613904,139.27949 127.40776,102.64822 157.20163,66.016951 Z M 32.85803,208.50797 c 0,0 -8.656027,15.14766 -11.406304,18.26146 l 13.198607,-10.64412 z m -11.406304,18.26146 -0.692013,0.55805 c 0.13814,0 0.377017,-0.20142 0.692013,-0.55805 z"
       inkscape:connector-curvature="0"
       sodipodi:nodetypes="cccccccccccc" />
  </g>
</svg>
